inDegrees=no
num_controls=7
num_derivatives=13
num_iterations=145
num_multipliers=7
num_parameters=0
num_slacks=7
num_states=26
objective=5.535298
objective_accelerations=0.284955
objective_balance=0.016021
objective_effort=0.316313
objective_height=4.822689
objective_ligament=0.095320
solver_duration=1257.371526
status=Solve_Succeeded
success=true
DataType=double
version=3
OpenSimVersion=4.4-2022-07-23-0e9fedc
endheader
time	/jointset/ground_pelvis/pelvis_tilt/value	/jointset/ground_pelvis/pelvis_tx/value	/jointset/ground_pelvis/pelvis_ty/value	/jointset/hip_r/hip_flexion_r/value	/jointset/hip_r/hip_adduction_r/value	/jointset/hip_r/hip_rotation_r/value	/jointset/back/lumbar_extension/value	/jointset/patellofemoral_r/patellar_flexion_r/value	/jointset/knee_r/knee_flexion_r/value	/jointset/knee_r/knee_adduction_r/value	/jointset/knee_r/knee_rotation_r/value	/jointset/ankle_r/ankle_angle_r/value	/jointset/subtalar_r/subtalar_angle_r/value	/jointset/ground_pelvis/pelvis_tilt/speed	/jointset/ground_pelvis/pelvis_tx/speed	/jointset/ground_pelvis/pelvis_ty/speed	/jointset/hip_r/hip_flexion_r/speed	/jointset/hip_r/hip_adduction_r/speed	/jointset/hip_r/hip_rotation_r/speed	/jointset/back/lumbar_extension/speed	/jointset/patellofemoral_r/patellar_flexion_r/speed	/jointset/knee_r/knee_flexion_r/speed	/jointset/knee_r/knee_adduction_r/speed	/jointset/knee_r/knee_rotation_r/speed	/jointset/ankle_r/ankle_angle_r/speed	/jointset/subtalar_r/subtalar_angle_r/speed	/forceset/tau_hip_flexion_r	/forceset/tau_hip_adduction_r	/forceset/tau_hip_rotation_r	/forceset/tau_knee_flexion_r	/forceset/tau_ankle_angle_r	/forceset/tau_subtalar_angle_r	/forceset/tau_lumbar_extension	lambda_cid13_p0	lambda_cid14_p0	lambda_cid14_p1	lambda_cid14_p2	lambda_cid14_p3	lambda_cid14_p4	lambda_cid14_p5	/jointset/ground_pelvis/pelvis_tilt/accel	/jointset/ground_pelvis/pelvis_tx/accel	/jointset/ground_pelvis/pelvis_ty/accel	/jointset/hip_r/hip_flexion_r/accel	/jointset/hip_r/hip_adduction_r/accel	/jointset/hip_r/hip_rotation_r/accel	/jointset/back/lumbar_extension/accel	/jointset/patellofemoral_r/patellar_flexion_r/accel	/jointset/knee_r/knee_flexion_r/accel	/jointset/knee_r/knee_adduction_r/accel	/jointset/knee_r/knee_rotation_r/accel	/jointset/ankle_r/ankle_angle_r/accel	/jointset/subtalar_r/subtalar_angle_r/accel	gamma_cid13_p0	gamma_cid14_p0	gamma_cid14_p1	gamma_cid14_p2	gamma_cid14_p3	gamma_cid14_p4	gamma_cid14_p5
1.5	-0.03759783204085587	0.05451471141653951	0.872677101815566	0.5822134358144097	-0.2258566013917087	-0.1509788910578926	-0.6122913285016701	0.6883826230475811	0.688382623047601	0.02191133817850294	0.1745160610123491	0.2184483340461339	0.1063528898282655	0.3577145490992753	0.1951276554984412	0.2655832995954746	-1.383045885184013	0.009120921685911318	-0.2188028092785823	0.8086026756032351	-1.270506340568723	-1.27050634056874	0.2435056653897595	2.258256765078249e-05	-0.311463506937391	-0.0914512190651539	-0.1318771536861756	-0.004163249764260765	0.01774241529367003	-0.2458088055962018	0.002857480819620313	-0.008895924817862085	0.1967520767776646	-21.61619160648976	-42.42392504918753	-7.722965649348737	-2.423078491829064	0.1631671007728392	-646.4426590884268	64.1581755039583	-0.120339462563788	0.3714166074033309	-0.2157922346380304	-0.7295269541121694	-0.0870185787064284	-0.2288273266395829	1.532484855601416	-1.025862260409925	-1.025862260409935	0.5589991243744684	-0.03288085286873166	-0.3051235963984039	-0.1824488099214467	2.855943413502058e-08	-5.653627948382675e-08	-8.294403217018992e-07	-4.52719976980064e-07	1.157881842192707e-07	-2.652059985045779e-08	-3.01382328008471e-07
1.51	-0.0340271595747639	0.05648427233202915	0.8753215622073121	0.5683484773088395	-0.2257696833305212	-0.153180289778364	-0.6041299982440369	0.6756280391570764	0.6756280391570855	0.02437275900525136	0.1745162042769135	0.2153188955396884	0.1054295642670536	0.3563755406576904	0.1987544113197682	0.2632517371977771	-1.389747368638974	0.008259239973252524	-0.2214654927152136	0.823529713648871	-1.280218187092089	-1.28021818709209	0.248751721948076	7.396863609177126e-06	-0.3143797995777243	-0.09320050268418396	-0.1256472386438556	-0.005221917225075468	0.01736548775634162	-0.2441770557440898	0.004710507745258566	-0.009489938619981129	0.1910200721463927	-22.18709765265249	-41.68750086687978	-7.803740594728092	-2.46532852091636	0.1184637567281178	-643.5169877451411	64.01592455579001	-0.1473477649656051	0.3538117479924813	-0.2504026679819871	-0.6107002214260546	-0.08641385888981121	-0.2832801410470901	1.452763937685111	-0.9150139784679709	-0.9150139784656592	0.5032451264063306	0.01426215610563343	-0.2781961583316068	-0.1693515083994262	2.850693633943166e-08	-5.925079621716221e-08	-8.41130457718034e-07	-4.815526437073508e-07	1.189591458693051e-07	-3.605191229018365e-08	-2.88220175459432e-07
1.52	-0.03047121043906347	0.05848920214143329	0.8779409940899525	0.5544224557327155	-0.2256915162647259	-0.1554079735909779	-0.5958234074742118	0.6627821031752982	0.6627821031753003	0.02688580763857403	0.1745162156014931	0.2121616312947421	0.1044891091955499	0.3547698830156227	0.2022014342813405	0.2605775977743546	-1.39525849930343	0.007370722606818424	-0.2240598277067205	0.8376547780400458	-1.28877675882218	-1.288776758822167	0.2538312267002472	-3.805429330360497e-06	-0.3170286546372852	-0.09487712112344245	-0.1194173236013664	-0.006280584685870449	0.01698856021890913	-0.242545305891942	0.006563534670900976	-0.0100839524220727	0.1852880675152568	-22.75001835197665	-40.95587930855228	-7.885602423109234	-2.507124021261351	0.07821549373550264	-640.6657770511539	63.86757991949324	-0.1736693026607737	0.3354700354530828	-0.2843076397829536	-0.4914563960115899	-0.09238570946145894	-0.2151576376147571	1.372090124709364	-0.7952073017552906	-0.7952073017552905	0.525688763145399	-0.03208417064833594	-0.2516360802430773	-0.1679157739668597	2.907910950426616e-08	-6.153713873921812e-08	-8.614525408594089e-07	-5.113982530751182e-07	1.22329650298557e-07	-4.353262379796202e-08	-2.779455154960768e-07
1.53	-0.02693266883556083	0.06052768628500996	0.8805320115945258	0.5404473003954531	-0.2256223353938405	-0.1576613549155711	-0.5873796761417881	0.6498563780921066	0.6498563780921017	0.02944873159754646	0.1745162253870918	0.2089792519228778	0.1035323060032669	0.3528919230513705	0.2054633297881719	0.2575726178952287	-1.399570584716926	0.006459923500239924	-0.2265971540401202	0.8509475075443799	-1.296171104462684	-1.296171104462676	0.2587334129037541	5.528170252075328e-06	-0.3194003427338432	-0.09647277353346097	-0.1130150433627239	-0.007373005331054906	0.01655144807382636	-0.2412122669522004	0.008821456740909799	-0.01073297323198151	0.179436715782424	-23.3030687049764	-40.10425271237636	-7.978734677377069	-2.537536256454752	-0.05282694510362947	-637.9213981190086	63.72719399844046	-0.2018425174429094	0.316765179238038	-0.3165962832088223	-0.3707959372400277	-0.09142764551894388	-0.2701416022900524	1.286267228105042	-0.6819813876388381	-0.68198138763965	0.4692993918860989	0.01729729323381862	-0.2228743049024626	-0.1539871956263454	3.031499556455053e-08	-6.336854616178952e-08	-8.909460678213514e-07	-5.423201139983961e-07	1.259121689307277e-07	-4.883457181554619e-08	-2.707388164050107e-07
1.54	-0.02341430346649327	0.06259783255784501	0.8830913786760618	0.5264350819394498	-0.2255624626408502	-0.1599395337977445	-0.578807336941351	0.6368626229140123	0.6368626229140111	0.03206004058715242	0.1745162995422699	0.205774567843942	0.1025598268426634	0.350734636121605	0.2085338601330174	0.2542475131669219	-1.402671123059263	0.005509099023180695	-0.2290193392170131	0.8633763516410181	-1.302382777800826	-1.302382777800823	0.263508232824599	9.068488730042319e-06	-0.3214895960520099	-0.09801231478777025	-0.1066127631240055	-0.008465425976362314	0.0161143359288165	-0.2398792280124192	0.01107937881088849	-0.01138199404206205	0.1735853640496718	-23.84432153172692	-39.25749063139614	-8.073426088739774	-2.566891656690077	-0.1762318573118165	-635.2508469796335	63.5764131997475	-0.2295346957638446	0.2971970030565476	-0.3483326096190598	-0.2491469817801399	-0.1003907835575991	-0.1921294063134659	1.199313043170358	-0.5586728412828781	-0.5586728412828679	0.5002155066130125	-0.03324282686923836	-0.195149124564068	-0.1566935428247619	2.949946773516598e-08	-6.275199283897861e-08	-8.768945580158581e-07	-5.500845822366475e-07	1.237513085306169e-07	-5.062900843398683e-08	-2.502704414435929e-07
1.55	-0.0199188735847272	0.06469765693131473	0.8856159267408896	0.5123980198447852	-0.2255121330367404	-0.1622414417260488	-0.5701150344169903	0.6238127634388242	0.62381276343877	0.03471807805591248	0.1745163106002352	0.2025504474512312	0.1015724725915388	0.3483093676605772	0.211391827490454	0.2506122477802317	-1.404529684398494	0.004564510481064239	-0.2313762119244888	0.8749373460113664	-1.307381914566618	-1.307381914566614	0.2680307897319361	1.030613839841625e-05	-0.3232832220201904	-0.09942808767677033	-0.100430281166129	-0.00934890685296089	0.0155829974352235	-0.2381295257766207	0.01269784923649233	-0.01194833059348773	0.1678861411265176	-24.37183952850445	-38.62034250187794	-8.157116862504946	-2.611471284227382	-0.1272954432798204	-632.7063663898573	63.41053325211267	-0.2553241361642357	0.2742405624016899	-0.3786107326358339	-0.1224768292971123	-0.09049518994627648	-0.2595807643734592	1.112471550917229	-0.4394586032405038	-0.4394586032402629	0.4178626608778603	0.01928136745313642	-0.1637547284108522	-0.1296359085054982	2.632035433724999e-08	-5.931496300518385e-08	-8.126715928044089e-07	-5.311677067291087e-07	1.149730766367909e-07	-4.838218191863189e-08	-2.145223095011186e-07
1.56	-0.0164489566304922	0.06682488977042381	0.8881026247059621	0.4983487189129109	-0.2254710497780419	-0.1645673412937956	-0.5613115261655279	0.6107191276940724	0.6107191276940874	0.03741925846935364	0.1745168288960931	0.1993099337197547	0.1005718372622124	0.3456320506037938	0.2140155532608928	0.2466774932159102	-1.405118890509791	0.003659829922721745	-0.2338176670883334	0.8856174970596389	-1.311138031692937	-1.311138031692932	0.2721368217626746	0.0001105160507887911	-0.3247682638070033	-0.10066853042851	-0.09424779920835216	-0.01023238772990702	0.01505165894311075	-0.2363798235408029	0.01431631966195417	-0.01251466714553995	0.162186918203358	-24.88368884524951	-37.98824116514903	-8.242853209062975	-2.654397287934112	-0.07005539481943381	-630.2374354642133	63.23336729878993	-0.2799444149153356	0.2503486856575476	-0.4082304451452933	0.004724063806593508	-0.09240918680286016	-0.2090458975872932	1.023144378755384	-0.3100689133884385	-0.310068913388439	0.4169105312932976	-0.01344837432485842	-0.1334322882898649	-0.12162751537245	3.748197082205337e-08	-2.43331906898193e-08	-6.632445146407207e-07	-2.095528027666135e-07	8.113425721690719e-08	1.22472298487612e-08	-2.572039383047303e-07
1.57	-0.01300698649278501	0.06897723303453236	0.8905485629619743	0.4842994143645814	-0.2254397435782776	-0.1669151700644952	-0.5524058822793946	0.5975940655656419	0.597594065565667	0.04016285547320685	0.1745174483232403	0.1960558226803223	0.0995582383773238	0.342709906280563	0.2164167893900885	0.2424656306384464	-1.404527980164765	0.002610015265264548	-0.2357620304074518	0.8953562600285353	-1.31367102165289	-1.313671021652881	0.2765082553881715	2.705049609271487e-05	-0.3259976038972445	-0.1020178051627577	-0.08766895410083847	-0.01161250741710841	0.01454734965336678	-0.235520400315757	0.01708481677019936	-0.01313210019144732	0.1562522804084504	-25.37792764193539	-37.00240677586253	-8.303026092656721	-2.685200175511109	-0.3011122659927341	-627.9921946691613	63.24644478629536	-0.3061521488080053	0.2295602425506213	-0.4342987100672744	0.118392132046677	-0.1098685121586676	-0.1890807119937978	0.9259892351633866	-0.1944248496301427	-0.1944248496295805	0.4361182086620294	-0.003580268313487671	-0.10922810836872	-0.1364963551164408	6.656949966025581e-08	5.00795097275071e-08	-4.073122952867344e-07	4.904346367645734e-07	1.596970338945178e-08	1.458548731812012e-07	-3.979227680409485e-07
1.58	-0.009595798339831735	0.07115249849313476	0.8929510556830075	0.4702624424421673	-0.2254186557064716	-0.1692828323009875	-0.5434075013677229	0.5844497713751303	0.5844497713751774	0.04294793849940094	0.1745176761703898	0.1927911095921952	0.0985321629645602	0.3394756536459917	0.218599992159658	0.2379883862201506	-1.402652365331885	0.00161616433020715	-0.2377843602433593	0.9041649021656116	-1.314984444106104	-1.314984444106091	0.2804340262330766	3.220005053742144e-05	-0.3268886735465841	-0.1031638360036417	-0.08109010899333531	-0.01299262710447414	0.01404304036383602	-0.2346609770906881	0.01985331387840655	-0.01374953323755709	0.1503176426135645	-25.85265547100096	-36.01950496679997	-8.360665272357961	-2.719887999106847	-0.5435671789916304	-625.7977322111014	63.32320403428119	-0.3423660771837993	0.2067420137328455	-0.4613068133116633	0.2616649613771671	-0.08121644232292405	-0.2246392009451841	0.8371202123915181	-0.06615541204074234	-0.06615541204074309	0.3277779751749342	0.004274647503288117	-0.06577820010888881	-0.08097873669952521	8.42076181504256e-08	9.383013318189774e-08	-2.634105557200854e-07	9.042905475383247e-07	-2.155723068532275e-08	2.27246919294882e-07	-4.896143707645259e-07
